<svg xmlns="http://www.w3.org/2000/svg" viewBox="0 0 34.92 34.92"><defs><style>.cls-1{fill:#010200;}.cls-2{fill:#33ff41;}</style></defs><g id="Calque_2" data-name="Calque 2"><g id="Calque_1-2" data-name="Calque 1"><path class="cls-1" d="M34.9,8.12a10.73,10.73,0,0,0-.25-2.19A7,7,0,0,0,34,4.05a1.17,1.17,0,0,0-.05-.11,6.83,6.83,0,0,0-1.45-1.85A7.16,7.16,0,0,0,29.54.44,10.54,10.54,0,0,0,27.78.09,20.59,20.59,0,0,0,25.56,0H10.85C9.66,0,8.48,0,7.3.07A8.84,8.84,0,0,0,5.68.34,7.49,7.49,0,0,0,1.82,2.77,7.17,7.17,0,0,0,.41,5.46,9.36,9.36,0,0,0,.05,7.7C0,9.07,0,10.44,0,11.82v5.6q0,3.72,0,7.44c0,.85,0,1.7,0,2.54a8.84,8.84,0,0,0,.26,1.7.13.13,0,0,0,0,.06,7.39,7.39,0,0,0,4.29,5,9.79,9.79,0,0,0,3.66.69c.92,0,1.84,0,2.76,0H21c.69,0,1.39,0,2.09,0,1.58,0,3.15,0,4.73-.11a8.82,8.82,0,0,0,1.95-.42,5,5,0,0,0,.9-.36,7.24,7.24,0,0,0,2.63-2.19,7.44,7.44,0,0,0,1.19-2.41l.06-.21a11,11,0,0,0,.32-2.91C34.92,20.25,34.94,14.19,34.9,8.12ZM30.34,20.71l-.06,1.89a9.81,9.81,0,0,1-.71,3.55,6.45,6.45,0,0,1-1.38,2,1.14,1.14,0,0,0-.11.11l.08.05-.08-.05a7.09,7.09,0,0,1-3.82,1.83c-.4.07-.81.1-1.21.13-1.25.09-2.51.08-3.76.1a.17.17,0,0,0,0,.07.17.17,0,0,1,0-.07H13.93c-.6,0-1.21,0-1.81-.06a10,10,0,0,1-2.93-.53,6.45,6.45,0,0,1-1.81-1,6.71,6.71,0,0,1-2.23-3.12l0-.08h0a11.6,11.6,0,0,1-.34-1.44,14,14,0,0,1-.13-1.44c-.1-2.17-.06-4.35-.07-6.52,0-.07,0-.14,0-.22,0-.5,0-1,0-1.5,0-.22,0-.44,0-.66,0-.45,0-.91.06-1.37a11.51,11.51,0,0,1,.15-1.66v-.11l-.14,0,.14,0c.08-.26.1-.52.18-.78A7,7,0,0,1,6,7.54,6.57,6.57,0,0,1,9.77,5a11.47,11.47,0,0,1,2.68-.37c2.9-.1,5.8,0,8.7,0a21.39,21.39,0,0,1,2.65.14A7.2,7.2,0,0,1,28,6.54l0,0A7.53,7.53,0,0,1,29.1,7.87a7.47,7.47,0,0,1,1,2.7,16.24,16.24,0,0,1,.21,2.51c.07,2.5,0,5,0,7.5v.13h0Z"/><path class="cls-2" d="M4.56,16c0-.5,0-1,0-1.5,0-.22,0-.44,0-.66,0-.45,0-.91.06-1.37a11.51,11.51,0,0,1,.15-1.66v-.11c.08-.26.1-.52.18-.78A7,7,0,0,1,6,7.54,6.57,6.57,0,0,1,9.77,5a11.47,11.47,0,0,1,2.68-.37c2.9-.1,5.8,0,8.7,0a21.39,21.39,0,0,1,2.65.14A7.2,7.2,0,0,1,28,6.54l0,0A7.53,7.53,0,0,1,29.1,7.87a7.47,7.47,0,0,1,1,2.7,16.24,16.24,0,0,1,.21,2.51c.07,2.5,0,5,0,7.5v.13l-.06,1.89a9.81,9.81,0,0,1-.71,3.55,6.45,6.45,0,0,1-1.38,2,1.14,1.14,0,0,0-.11.11,7.09,7.09,0,0,1-3.82,1.83c-.4.07-.81.1-1.21.13-1.25.09-2.51.08-3.76.1H13.93c-.6,0-1.21,0-1.81-.06a10,10,0,0,1-2.93-.53,6.45,6.45,0,0,1-1.81-1,6.71,6.71,0,0,1-2.23-3.12l0-.08a11.6,11.6,0,0,1-.34-1.44,14,14,0,0,1-.13-1.44c-.1-2.17-.06-4.35-.07-6.52C4.57,16.11,4.56,16,4.56,16ZM23.22,7,22,6.94c-.67,0-1.35,0-2,0-2.59,0-5.17-.05-7.76.07a9.24,9.24,0,0,0-1.38.15,4.55,4.55,0,0,0-2.44,1.2A3.87,3.87,0,0,0,7.5,9.66a2.94,2.94,0,0,0-.24.62,13.44,13.44,0,0,0-.34,3.34l0,1.27c0,1.74,0,3.47,0,5.21a2.11,2.11,0,0,0,0,.25c0,.71,0,1.42,0,2.13a11.76,11.76,0,0,0,.16,1.57,4.76,4.76,0,0,0,.35,1.15,4,4,0,0,0,1.62,1.92,5.66,5.66,0,0,0,2.72.8c.91.07,1.83.1,2.75.1H18.9c1.37,0,2.74,0,4.11-.09a6.55,6.55,0,0,0,2.46-.61,4.18,4.18,0,0,0,1.68-1.55c0-.05.07-.1.1-.16a5.33,5.33,0,0,0,.58-1.74A23.29,23.29,0,0,0,28,20.53c0-.06,0-.12,0-.18,0-2.17,0-4.35,0-6.53a18.1,18.1,0,0,0-.22-3,4.86,4.86,0,0,0-1.09-2.27,4.33,4.33,0,0,0-1.44-1A6.21,6.21,0,0,0,23.22,7Z"/><path class="cls-1" d="M28,13.82a18.1,18.1,0,0,0-.22-3,4.86,4.86,0,0,0-1.09-2.27,4.33,4.33,0,0,0-1.44-1,6.21,6.21,0,0,0-2-.48L22,6.94c-.67,0-1.35,0-2,0-2.59,0-5.17-.05-7.76.07a9.24,9.24,0,0,0-1.38.15,4.55,4.55,0,0,0-2.44,1.2A3.87,3.87,0,0,0,7.5,9.66a2.94,2.94,0,0,0-.24.62,13.44,13.44,0,0,0-.34,3.34l0,1.27c0,1.74,0,3.47,0,5.21a2.11,2.11,0,0,0,0,.25c0,.71,0,1.42,0,2.13a11.76,11.76,0,0,0,.16,1.57,4.76,4.76,0,0,0,.35,1.15,4,4,0,0,0,1.62,1.92,5.66,5.66,0,0,0,2.72.8c.91.07,1.83.1,2.75.1H18.9c1.37,0,2.74,0,4.11-.09a6.55,6.55,0,0,0,2.46-.61,4.18,4.18,0,0,0,1.68-1.55c-.06-.13-.13-.26-.2-.38.07.12.14.25.2.38,0-.05.07-.1.1-.16a5.33,5.33,0,0,0,.58-1.74A23.29,23.29,0,0,0,28,20.53c0-.06,0-.12,0-.18C28,18.18,28.05,16,28,13.82ZM24.36,9a1.54,1.54,0,1,1-1.56,1.53A1.53,1.53,0,0,1,24.36,9Zm-.73,10.83c-.12.3-.28.58-.41.88l.08.06-.08-.06a6.86,6.86,0,0,1-1.54,1.81A6.62,6.62,0,0,1,18.41,24a6.81,6.81,0,0,1-2.91-.22,6.18,6.18,0,0,1-2-1,5.92,5.92,0,0,1-.91-.82,6.69,6.69,0,0,1-1.5-6.33c0-.08,0-.16.05-.24s0-.07.06-.11a6.71,6.71,0,0,1,1.43-2.36c.07-.06.11-.15.19-.2l.57-.5a5.94,5.94,0,0,1,1.15-.71,6.37,6.37,0,0,1,3.26-.67,6.56,6.56,0,0,1,5.59,3.67l.06.11a7.14,7.14,0,0,1,.49,1.48A6.61,6.61,0,0,1,23.63,19.87Z"/><path class="cls-2" d="M11.14,15.4s0-.07.06-.11a6.71,6.71,0,0,1,1.43-2.36c.07-.06.11-.15.19-.2l.57-.5a5.94,5.94,0,0,1,1.15-.71,6.37,6.37,0,0,1,3.26-.67,6.56,6.56,0,0,1,5.59,3.67l.06.11a7.14,7.14,0,0,1,.49,1.48,6.61,6.61,0,0,1-.31,3.76c-.12.3-.28.58-.41.88a6.86,6.86,0,0,1-1.54,1.81A6.62,6.62,0,0,1,18.41,24a6.81,6.81,0,0,1-2.91-.22,6.18,6.18,0,0,1-2-1,5.92,5.92,0,0,1-.91-.82,6.69,6.69,0,0,1-1.5-6.33C11.11,15.56,11.12,15.48,11.14,15.4Zm10.22,3.81s.05-.06.07-.1A4.3,4.3,0,0,0,14.87,14a4,4,0,0,0-1.26,1.53,4.14,4.14,0,0,0-.32,2.91,4.28,4.28,0,0,0,7.52,1.66A3.8,3.8,0,0,0,21.36,19.21Z"/><path class="cls-2" d="M24.33,12.12a1.54,1.54,0,1,1,1.55-1.53A1.53,1.53,0,0,1,24.33,12.12Z"/><path class="cls-1" d="M21.28,15.51A4.28,4.28,0,0,0,14.87,14a4,4,0,0,0-1.26,1.53,4.14,4.14,0,0,0-.32,2.91,4.28,4.28,0,0,0,7.52,1.66,3.8,3.8,0,0,0,.55-.93s.05-.06.07-.1a4.28,4.28,0,0,0-.15-3.6Z"/></g></g></svg>