<svg xmlns="http://www.w3.org/2000/svg" viewBox="0 0 35.01 35.01"><defs><style>.cls-1{fill:#010200;}.cls-2,.cls-3,.cls-4{fill:#33ff41;}.cls-2{stroke:#33ff41;}.cls-2,.cls-4{stroke-miterlimit:10;stroke-width:0.25px;}.cls-4{stroke:#010200;}</style></defs><g id="Calque_2" data-name="Calque 2"><g id="Calque_1-2" data-name="Calque 1"><path class="cls-1" d="M35,8.14a10.24,10.24,0,0,0-.25-2.2A6.39,6.39,0,0,0,34,4.06.36.36,0,0,0,34,4a7.12,7.12,0,0,0-1.45-1.86A7.35,7.35,0,0,0,29.61.44,10.43,10.43,0,0,0,27.86.09,20.87,20.87,0,0,0,25.62,0H10.88C9.69,0,8.5,0,7.32.07A8.18,8.18,0,0,0,5.69.35,7.32,7.32,0,0,0,1.83,2.78,7,7,0,0,0,.41,5.47,9.44,9.44,0,0,0,.05,7.72C0,9.09,0,10.47,0,11.85v5.62q0,3.72,0,7.46c0,.85,0,1.7,0,2.54a8.94,8.94,0,0,0,.26,1.71.13.13,0,0,0,0,.06,7.42,7.42,0,0,0,.77,1.92,7.25,7.25,0,0,0,3.54,3.13A9.79,9.79,0,0,0,8.3,35c.92,0,1.85,0,2.77,0h10c.7,0,1.4,0,2.1,0,1.58,0,3.16.05,4.74-.11a8.26,8.26,0,0,0,2-.42,5,5,0,0,0,.9-.36,7.3,7.3,0,0,0,2.64-2.2,7.44,7.44,0,0,0,1.19-2.41,1.66,1.66,0,0,0,.06-.21A11.08,11.08,0,0,0,35,26.38C35,20.3,35,14.22,35,8.14Z"/><rect class="cls-2" x="6.23" y="6.32" width="23.85" height="0.02"/><rect class="cls-2" x="5.65" y="28.56" width="23.85" height="0.02"/><path class="cls-3" d="M25.85,17.08c-.19.12-.35.25-.52.38l-5.09,3.82L17.82,23.1l-.08.06c0,.05-.08,0-.13,0l-.79-.59-5.54-4.16L9.59,17.14l-.09-.06,0,0s0-.08,0-.13V8.21l.08,0,3.85,2.9,3.94,2.95.23.18c.07.05.07.05.14,0l1.08-.81,4.85-3.65c.7-.52,1.4-1,2.09-1.57a.26.26,0,0,1,.09,0v8.86Z"/><path class="cls-3" d="M9.47,17l0,0V28.52c0,.17,0,.15-.14.15H4.73a2,2,0,0,1-1.84-1.15,1.88,1.88,0,0,1-.2-.87V12.09s0-.09,0-.12l.08,0,6.05,4.55Z"/><path class="cls-3" d="M25.85,17.08h0l.07-.05,2.33-1.75,3.47-2.6.93-.7a.49.49,0,0,1,0,.12V26.65a2.05,2.05,0,0,1-1.64,2,2,2,0,0,1-.42,0H26c-.15,0-.13,0-.13-.13V17.08Z"/><path class="cls-4" d="M32.65,12l-.93.7-3.47,2.6L25.92,17l-.07.05V8.21c.17-.15.37-.29.56-.43l1.35-1a3.07,3.07,0,0,1,4.85,1.91,2.75,2.75,0,0,1,0,.57v2.61A.25.25,0,0,1,32.65,12Z"/><path class="cls-4" d="M9.47,17l-.64-.47L2.78,12,2.7,12a.22.22,0,0,1,0-.11c0-.88,0-1.76,0-2.64A2.93,2.93,0,0,1,4.4,6.48a2.89,2.89,0,0,1,3.15.27c.65.45,1.27.94,1.9,1.42a.1.1,0,0,1,.05,0v8.7C9.5,17,9.52,17,9.47,17Z"/></g></g></svg>