<svg xmlns="http://www.w3.org/2000/svg" viewBox="0 0 34.49 34.49"><defs><style>.cls-1{fill:#010200;}.cls-2{fill:#33ff41;}</style></defs><g id="Calque_2" data-name="Calque 2"><g id="Calque_1-2" data-name="Calque 1"><path class="cls-1" d="M34.47,8a10.43,10.43,0,0,0-.24-2.16A6.73,6.73,0,0,0,33.53,4a1.17,1.17,0,0,0-.05-.11,7,7,0,0,0-1.42-1.83A7.35,7.35,0,0,0,29.17.43,11.26,11.26,0,0,0,27.44.09,20.13,20.13,0,0,0,25.24,0H10.71C9.55,0,8.38,0,7.21.07a8.63,8.63,0,0,0-1.6.27A7.3,7.3,0,0,0,1.8,2.74,7.2,7.2,0,0,0,.4,5.39,9.7,9.7,0,0,0,.05,7.6C0,9,0,10.31,0,11.67v5.54q0,3.67,0,7.35c0,.83,0,1.67,0,2.5a8.86,8.86,0,0,0,.26,1.69v.05a7.29,7.29,0,0,0,.77,1.9,7.16,7.16,0,0,0,3.48,3.08,9.68,9.68,0,0,0,3.61.68c.91,0,1.82,0,2.72,0h9.88c.69,0,1.38,0,2.07,0,1.55,0,3.11,0,4.66-.11A8.4,8.4,0,0,0,29.44,34a5.72,5.72,0,0,0,.89-.36,7.1,7.1,0,0,0,2.6-2.17,7,7,0,0,0,1.17-2.37,1.72,1.72,0,0,0,.07-.21A11.16,11.16,0,0,0,34.48,26C34.49,20,34.51,14,34.47,8Z"/><path class="cls-2" d="M15.67,22.18c-.17.68-.33,1.34-.51,2-.22.87-.42,1.75-.69,2.61a13.81,13.81,0,0,1-1.83,3.51c-.26.38-.54.74-.81,1.11-.07.09-.16.16-.26.11a.36.36,0,0,1-.16-.22,20.28,20.28,0,0,1-.22-3.65,14.31,14.31,0,0,1,.44-2.91c.61-2.51,1.19-5,1.78-7.54a.57.57,0,0,0,0-.29,5.84,5.84,0,0,1-.05-4.31,3.22,3.22,0,0,1,1.47-1.72,2.27,2.27,0,0,1,2-.14A2,2,0,0,1,18,12.38a4.56,4.56,0,0,1-.18,2c-.3,1.07-.63,2.14-.93,3.21a8.06,8.06,0,0,0-.27,1.18,2.27,2.27,0,0,0,1.53,2.42,3.07,3.07,0,0,0,2.7-.32,5,5,0,0,0,1.83-2,10.56,10.56,0,0,0,1.19-3.74A12.38,12.38,0,0,0,24,12.74,5.47,5.47,0,0,0,19.73,7.5a8.23,8.23,0,0,0-5.21.31,7,7,0,0,0-4.39,5.29,6.42,6.42,0,0,0,0,2.76A3.87,3.87,0,0,0,11,17.65a.91.91,0,0,1,.22,1c-.12.37-.19.76-.29,1.13a.55.55,0,0,1-.85.41,4.67,4.67,0,0,1-2.41-2.4A7.46,7.46,0,0,1,7,14.89,9.13,9.13,0,0,1,9.78,7.71a10.35,10.35,0,0,1,5.57-2.88,12.11,12.11,0,0,1,5.19,0,9.22,9.22,0,0,1,6.28,4.65,8.38,8.38,0,0,1,1,4.61,14.22,14.22,0,0,1-.57,3.49A9.84,9.84,0,0,1,24.65,22,7.35,7.35,0,0,1,20.12,24,5.24,5.24,0,0,1,17,23.39,4.29,4.29,0,0,1,15.67,22.18Z"/></g></g></svg>