<svg xmlns="http://www.w3.org/2000/svg" viewBox="0 0 35.04 35.04"><defs><style>.cls-1{fill:#33ff41;}</style></defs><g id="Calque_2" data-name="Calque 2"><g id="Calque_1-2" data-name="Calque 1"><path d="M35,8.15A10.83,10.83,0,0,0,34.77,6a6.75,6.75,0,0,0-.71-1.89A.54.54,0,0,0,34,4,6.83,6.83,0,0,0,32.57,2.1,7.25,7.25,0,0,0,29.64.44,10.75,10.75,0,0,0,27.88.09,20.78,20.78,0,0,0,25.65,0H10.89C9.7,0,8.51,0,7.32.07A8.08,8.08,0,0,0,5.7.35,7.39,7.39,0,0,0,1.83,2.78,7.3,7.3,0,0,0,.41,5.48,9.44,9.44,0,0,0,.05,7.72C0,9.1,0,10.48,0,11.86v5.62Q0,21.21,0,25c0,.85,0,1.7,0,2.55a9,9,0,0,0,.26,1.7s0,0,0,.06a7.49,7.49,0,0,0,.77,1.93,7.29,7.29,0,0,0,3.54,3.13A10,10,0,0,0,8.31,35c.92,0,1.84,0,2.77,0h10c.7,0,1.4,0,2.1,0,1.58,0,3.16.05,4.74-.11a8.67,8.67,0,0,0,2-.42,5.45,5.45,0,0,0,.9-.36A7.34,7.34,0,0,0,33.46,32a7.49,7.49,0,0,0,1.19-2.42l.06-.21A11.08,11.08,0,0,0,35,26.4C35,20.32,35.06,14.23,35,8.15Z"/><polygon class="cls-1" points="8.73 22.89 17.52 8.22 26.32 22.89 8.73 22.89"/></g></g></svg>