<svg xmlns="http://www.w3.org/2000/svg" viewBox="0 0 34.76 34.76"><defs><style>.cls-1{fill:#010200;}.cls-2{fill:#33ff41;}</style></defs><g id="Calque_2" data-name="Calque 2"><g id="Calque_1-2" data-name="Calque 1"><path class="cls-1" d="M34.73,8.08a10.7,10.7,0,0,0-.24-2.18A6.51,6.51,0,0,0,33.78,4s0-.08,0-.11A6.79,6.79,0,0,0,32.3,2.08,7.25,7.25,0,0,0,29.39.44,10.32,10.32,0,0,0,27.65.09,20.59,20.59,0,0,0,25.43,0H10.8C9.62,0,8.44,0,7.26.07A8.88,8.88,0,0,0,5.65.34,7.29,7.29,0,0,0,1.82,2.76,7.16,7.16,0,0,0,.41,5.43,9.35,9.35,0,0,0,.05,7.66C0,9,0,10.39,0,11.76v5.58c0,2.47,0,4.93,0,7.4,0,.85,0,1.69,0,2.53A8.74,8.74,0,0,0,.32,29V29a8.13,8.13,0,0,0,.77,1.91A7.28,7.28,0,0,0,4.6,34a9.84,9.84,0,0,0,3.64.68c.92,0,1.83,0,2.75,0l9.8,0H23c1.57,0,3.14,0,4.7-.11a8.6,8.6,0,0,0,1.94-.41,5.45,5.45,0,0,0,.9-.36,7.21,7.21,0,0,0,2.62-2.19,7.12,7.12,0,0,0,1.18-2.39,1.72,1.72,0,0,0,.07-.21,11.31,11.31,0,0,0,.31-2.9C34.75,20.15,34.77,14.12,34.73,8.08Z"/><path class="cls-2" d="M10.58,4.42a10.19,10.19,0,0,0-3,4.69c-.91,3.2.39,6.05,2.14,10a32.5,32.5,0,0,0,3.8,6.41c2.41,3.3,4,4.35,4.72,4.8a10.21,10.21,0,0,0,3.32,1.3,7.35,7.35,0,0,0,4.14-.21l.42-.17-4.83-6.52a1.29,1.29,0,0,1-.59.4,1.76,1.76,0,0,1-1.36-.31c-1.77-1.07-4.53-5.66-5.78-8.9a10.24,10.24,0,0,1-.48-1.55c-.28-1.14-.2-1.5-.1-1.74a1.8,1.8,0,0,1,.78-.81Z"/><path class="cls-2" d="M13.76,3.46c.42.24.67.73,1.15,1.72.09.18.28.64.68,1.58.21.5.3.71.4,1a11.82,11.82,0,0,1,.42,1.2,2.6,2.6,0,0,1,.06,1.9l-.06.11c-.5.77-1.82.69-2.07.67L11.15,4.06a2.12,2.12,0,0,1,.92-.72A2.18,2.18,0,0,1,13.76,3.46Z"/><path class="cls-2" d="M24.1,23.1c.47.14.82.56,1.53,1.41.12.15.42.56,1,1.38.32.43.45.62.61.85A11.5,11.5,0,0,1,28,27.82a2.6,2.6,0,0,1,.5,1.83l0,.12c-.29.87-1.6,1.1-1.85,1.14L21.7,24.3a2,2,0,0,1,.73-.91A2.14,2.14,0,0,1,24.1,23.1Z"/></g></g></svg>